<svg width="30" height="25" viewBox="0 0 30 25" fill="none" xmlns="http://www.w3.org/2000/svg">
<path d="M25.4129 2.09372C23.4709 1.11561 21.3944 0.404733 19.2237 0C18.957 0.518888 18.6455 1.21679 18.4308 1.772C16.1231 1.3984 13.8366 1.3984 11.5714 1.772C11.3567 1.21679 11.0381 0.518888 10.7692 0C8.596 0.404733 6.51719 1.11821 4.57524 2.09891C0.658305 8.47085 -0.403514 14.6846 0.127396 20.81C2.72532 22.8985 5.243 24.1672 7.71822 24.9974C8.32936 24.092 8.87443 23.1295 9.34399 22.115C8.4497 21.7492 7.59317 21.2978 6.78382 20.7736C6.99854 20.6025 7.20855 20.4234 7.41148 20.2393C12.3478 22.7247 17.7111 22.7247 22.5885 20.2393C22.7937 20.4234 23.0037 20.6025 23.2161 20.7736C22.4044 21.3003 21.5455 21.7518 20.6512 22.1176C21.1207 23.1295 21.6634 24.0946 22.2769 25C24.7545 24.1698 27.2746 22.9011 29.8725 20.81C30.4955 13.7091 28.8083 7.55241 25.4129 2.09372ZM10.0165 17.0429C8.53465 17.0429 7.31945 15.5536 7.31945 13.7402C7.31945 11.9267 8.50869 10.4349 10.0165 10.4349C11.5243 10.4349 12.7394 11.9241 12.7135 13.7402C12.7159 15.5536 11.5243 17.0429 10.0165 17.0429ZM19.9835 17.0429C18.5016 17.0429 17.2864 15.5536 17.2864 13.7402C17.2864 11.9267 18.4757 10.4349 19.9835 10.4349C21.4912 10.4349 22.7064 11.9241 22.6805 13.7402C22.6805 15.5536 21.4912 17.0429 19.9835 17.0429Z" fill="#5865F2"/>
</svg>
