<svg width="22" height="25" viewBox="0 0 22 25" fill="none" xmlns="http://www.w3.org/2000/svg">
<path fill-rule="evenodd" clip-rule="evenodd" d="M15.8555 8.73104H19.631C19.631 5.19228 17.8147 3.125 14.7372 3.125H6.67853C3.60103 3.125 1.78467 5.19228 1.78467 8.6859V16.3141C1.78467 19.8077 3.60103 21.875 6.67853 21.875H14.7372C17.8147 21.875 19.631 19.8077 19.631 16.3141V15.9891H15.8555C14.1033 15.9891 12.6828 14.3724 12.6828 12.3781C12.6828 10.3838 14.1033 8.76715 15.8555 8.76715V8.73104ZM15.8555 10.2838H18.9648C19.3327 10.2838 19.631 10.6233 19.631 11.0421V13.6781C19.6267 14.0948 19.3309 14.4315 18.9648 14.4364H15.9269C15.0398 14.45 14.2642 13.7587 14.063 12.7753C13.9622 12.1649 14.1036 11.535 14.4494 11.0544C14.7951 10.5738 15.3098 10.2917 15.8555 10.2838ZM15.9904 13.0552H16.2838C16.6606 13.0552 16.966 12.7076 16.966 12.2788C16.966 11.8501 16.6606 11.5025 16.2838 11.5025H15.9904C15.8102 11.5001 15.6367 11.5798 15.5085 11.724C15.3803 11.8682 15.3082 12.0647 15.3082 12.2698C15.3082 12.7001 15.6124 13.0502 15.9904 13.0552ZM6.01226 8.73104H11.0489C11.4256 8.73104 11.731 8.38345 11.731 7.95468C11.731 7.52591 11.4256 7.17832 11.0489 7.17832H6.01226C5.63861 7.17829 5.33448 7.52041 5.33013 7.94566C5.33011 8.37591 5.63425 8.7261 6.01226 8.73104Z" fill="#191919"/>
</svg>
