<svg width="335" height="524" viewBox="0 0 335 524" fill="none" xmlns="http://www.w3.org/2000/svg">
<path d="M-112.67 320.165L-62.4575 294.521H3.7737L49.9815 343.028L61.9955 403.585L89.4121 415.325L100.194 496.582H41.9721L-27.9557 502.452L-73.2393 523.153L-88.0258 508.323V469.702V381.648L-112.67 371.762V320.165Z" stroke="#949494" stroke-width="1.47604"/>
<path d="M-225.561 1L-122.746 65.8578H-34.1773L45.0025 8.91417L117.953 60.3514L207.545 58.2157L202.804 207.102L278.74 215.23L299.381 325.976L263.956 445.605L323.006 479.363L334 713.004L141.598 715.036L95.1439 773.923L-59.0163 788.254L-121.09 743.144L-257.028 797.531L-299.744 741.521V617.107L-342.461 496.626L-308.275 396.371L-316.806 296.117L-388 249.829V83.6112L-225.561 1Z" stroke="#949494" stroke-width="1.47604"/>
<path d="M-191.061 74.3799L-107.674 119.818H-24.6891L40.4718 83.1734L100.961 127.815L169.656 133.782L167.602 253.017L231.409 262.048L248.237 355.264L223.016 455.143L260.026 480.462L260.994 655.692L107.951 657.95L64.3695 702.85L-62.5716 718.773L-110.975 683.087L-214.777 722.023L-246.814 675.188V577.05L-278.852 464.675L-256.293 388.249L-265.771 311.822L-319.167 270.657V139.544L-191.061 74.3799Z" stroke="#949494" stroke-width="1.47604"/>
<path d="M-156.562 147.76L-92.6021 173.778H-15.2021L35.9398 157.433L83.9669 195.278L131.766 209.349L132.4 298.932L184.076 308.866L197.092 384.553L182.075 464.682L197.044 481.561L187.986 598.381L74.3028 600.865L33.5939 631.776L-66.1281 649.292L-100.862 623.029L-172.527 646.515L-193.885 608.855V536.993L-215.244 432.725L-204.312 380.126L-214.738 327.527L-250.335 291.484V195.476L-156.562 147.76Z" stroke="#949494" stroke-width="1.47604"/>
<path d="M-122.064 221.141L-77.5306 227.739H-5.71503L31.4079 231.694L66.9734 262.743L93.8766 284.918L97.1967 344.848L136.743 355.686L145.947 413.843L141.134 474.222L134.063 482.661L114.978 541.072L40.6547 543.781L2.81827 560.704L-69.6845 579.812L-90.7479 562.973L-130.277 571.009L-140.956 542.524V496.938L-151.636 400.777L-152.331 372.006L-163.705 343.234L-181.503 312.314V251.411L-122.064 221.141Z" stroke="#949494" stroke-width="1.47604"/>
</svg>
