<svg width="113" height="95" viewBox="0 0 113 95" fill="none" xmlns="http://www.w3.org/2000/svg">
<path d="M84.7647 13.3664V16.2877H93.6266V92.0791H24.7024C21.764 92.0791 19.3737 90.0693 19.3737 87.5993V14.3862C21.0568 15.572 23.2235 16.2875 25.5856 16.2875H63.5664V13.3664H25.5856C22.1603 13.3664 19.3737 11.0237 19.3737 8.14402C19.3737 5.26434 22.1603 2.92125 25.5856 2.92125H90.0645V0H25.5856C20.5424 0 16.3576 3.23891 15.91 7.38235L15.899 87.5989C15.899 91.68 19.8482 95 24.7024 95H97.1014V13.3664H84.7647Z" fill="black"/>
<path d="M88.296 4.45532H22.9352V7.37657H88.296V4.45532Z" fill="black"/>
<path d="M91.831 8.91064H22.9352V11.8319H91.831V8.91064Z" fill="black"/>
<path d="M82.9689 13.3665H65.3621V55.804L74.1655 52.1035L82.9689 55.804V13.3665ZM79.4943 51.0774L74.1657 48.8375L68.837 51.0774V16.2875H79.4946V51.0774H79.4943Z" fill="black"/>
<path d="M28.2076 17.7979H24.7328V90.5705H28.2076V17.7979Z" fill="black"/>
<path d="M51.2007 20.793H33.5354V23.7142H51.2007V20.793Z" fill="black"/>
<path d="M72.3988 84.6539H68.8657V87.5752H72.3988V84.6539Z" fill="black"/>
<path d="M79.4664 84.6539H75.9333V87.5752H79.4664V84.6539Z" fill="black"/>
<path d="M86.5315 84.6539H82.9985V87.5752H86.5315V84.6539Z" fill="black"/>
<path d="M44.1344 26.7327H33.5354V29.6539H44.1344V26.7327Z" fill="black"/>
<path d="M44.1344 32.6724H33.5354V35.5936H44.1344V32.6724Z" fill="black"/>
</svg>
