<svg width="275" height="40" viewBox="0 0 275 40" fill="none" xmlns="http://www.w3.org/2000/svg">
<g clip-path="url(#clip0_3_614)">
<path d="M247.636 11.7906H252.155V27.9627H247.636V11.7906ZM269.563 39.1092C270.361 38.7226 271.092 38.2715 271.823 37.7561C272.487 37.1762 273.085 36.6608 273.55 36.081C274.015 35.5011 274.281 34.9856 274.281 34.5346V5.08986C274.281 4.63885 274.015 4.1234 273.55 3.54354C273.085 2.96366 272.487 2.38378 271.823 1.86834C271.157 1.3529 270.361 0.901882 269.563 0.515299C268.766 0.128716 268.102 -0.0645752 267.503 -0.0645752H225.511V39.6246H267.503C268.102 39.689 268.766 39.4957 269.563 39.1092ZM222.587 -0.00014469V11.8551H211.956V14.69H222.52V24.9989H211.956V27.8339H222.587V39.6246H189.83V-0.00014469H222.587ZM177.139 -0.00014469V27.8339H186.974V39.6246H155.013V-0.00014469H177.139ZM125.447 11.7906H129.964V27.9627H125.447V11.7906ZM147.373 39.1092C148.17 38.7226 148.901 38.2715 149.632 37.7561C150.296 37.1762 150.895 36.6608 151.359 36.081C151.824 35.5011 152.09 34.9856 152.09 34.5346V5.08986C152.09 4.63885 151.824 4.1234 151.359 3.54354C150.895 2.96366 150.296 2.38378 149.632 1.86834C148.968 1.3529 148.17 0.901882 147.373 0.515299C146.575 0.128716 145.911 -0.0645752 145.313 -0.0645752H103.32V39.6246H145.313C145.911 39.689 146.575 39.4957 147.373 39.1092ZM73.8192 11.7906H78.3375V27.9627H73.8192V11.7906ZM95.7458 39.1092C96.5431 38.7226 97.274 38.2715 98.0048 37.7561C98.6693 37.1762 99.2673 36.6608 99.7324 36.081C100.198 35.5011 100.463 34.9856 100.463 34.5346V5.08986C100.463 4.63885 100.198 4.1234 99.7324 3.54354C99.2673 2.96366 98.6693 2.38378 98.0048 1.86834C97.3404 1.3529 96.5431 0.901882 95.7458 0.515299C94.9484 0.193147 94.2175 -0.00014469 93.686 -0.00014469H51.6935V39.6891H93.686C94.2175 39.6891 94.9484 39.4957 95.7458 39.1092Z" fill="#8783D1"/>
<path d="M48.8363 34.4704V5.09001C48.8363 4.639 48.5705 4.12355 48.1054 3.54367C47.6403 2.96381 47.0424 2.38393 46.3779 1.86848C45.7135 1.35304 44.9161 0.902027 44.1188 0.515444C43.3215 0.193291 42.657 0 42.059 0H38.3382H37.7402H18.0728L0 39.6891H20.8634L26.5112 22.744L26.4447 39.6891H37.6737H38.2718H41.9926C42.5905 39.6891 43.255 39.4959 44.0524 39.1093C44.8496 38.7228 45.5805 38.2717 46.3114 37.7563C46.9758 37.1764 47.5738 36.6609 48.039 36.081C48.5705 35.4367 48.8363 34.9213 48.8363 34.4704Z" fill="#8783D1"/>
</g>
<defs>
<clipPath id="clip0_3_614">
<rect width="275" height="40" fill="white"/>
</clipPath>
</defs>
</svg>
